<?xml version="1.0" encoding="utf-8"?>
<svg version="1.1" id="Layer_1" xmlns="http://www.w3.org/2000/svg" xmlns:xlink="http://www.w3.org/1999/xlink" x="0px" y="0px"
	 viewBox="0 0 1905.679 1643.815" enable-background="new 0 0 1905.679 1643.815" xml:space="preserve">
<g>
	<path fill="#181733" stroke="#181733" d="M378.397,52.057c37.316-15.64,77.017-26.51,117.513-28.959
		c11.644,2.127,24.126,1.074,34.996,6.423c18.819,9.001,37.875,17.595,55.985,27.971c30.399,18.003,58.219,40.109,83.591,64.643
		c10.935,12.697,22.665,24.727,32.805,38.111c49.368,63.118,78.671,141.424,84.042,221.298c2.256,22.214,2.793,44.621,0.516,66.856
		c-5.972,93.817-41.634,186.517-104.473,256.96c-14.265,14.372-28.1,29.389-44.535,41.377
		c-54.095,43.246-122.497,67.651-191.544,70.315c-64.858-19.872-124.108-56.479-173.262-102.99
		c-29.625-28.358-55.942-60.497-76.158-96.245c17.251,1.139,34.652,2.578,51.409,7.132c17.53,4.597,35.77,5.177,53.794,5.994
		c27.778,1.418,55.534-4.189,81.529-13.706c37.939-14.071,73.344-37.531,97.19-70.615c14.179-19.743,23.803-43.847,21.698-68.51
		c-1.096-20.774-12.224-40.281-28.293-53.235c-19.893-16.241-45.587-23.739-70.873-25.586c-46.447-3.867-93.409,9.56-133.045,33.492
		c-13.47,7.755-24.641,18.905-38.433,26.145c-16.499,8.915-34.889,14.909-53.751,15.339c-10.355,0.322-20.667-1.353-31.043-0.967
		c-6.789-42.279-3.91-85.439,2.556-127.567c6.252-29.282,14.823-58.005,25.866-85.847c15.597-34.373,34.352-67.479,58.262-96.803
		c15.468-19.378,32.977-37.037,51.624-53.343C314.184,86.344,345.27,67.009,378.397,52.057z"/>
	<path fill="#121228" stroke="#121228" d="M495.91,23.098c55.491-4.533,111.863,3.974,163.809,23.911
		c60.669,23.073,114.957,61.614,158.374,109.715c21.311,24.383,39.744,51.13,55.556,79.38c17.101,33.32,30.034,68.66,38.541,105.139
		c2.256,15.06,5.371,29.991,6.832,45.158c2.084,18.067,2.256,36.285,3.48,54.395c-3.717,12.46-1.504,25.586-3.222,38.305
		c-5.156,54.052-19.292,107.523-44.041,155.947c-14.652,30.356-33.234,58.907-55.599,84.128
		c-7.712,9.087-18.583,15.855-22.643,27.606c-4.662,1.869-9.216,4.211-12.89,7.712c-12.374,11.515-26.188,21.354-40.431,30.463
		c-12.718,8.421-26.725,14.544-39.615,22.686c-9.13,2.986-18.433,5.521-27.37,9.109c-46.618,17.509-97.254,20.581-146.537,17.251
		c-13.642-1.719-27.241-3.974-40.926-5.457c-14.072-3.523-28.143-7.047-41.935-11.493c69.047-2.664,137.45-27.069,191.544-70.315
		c16.435-11.988,30.27-27.004,44.535-41.377c62.838-70.443,98.5-163.143,104.473-256.96c2.277-22.235,1.74-44.642-0.516-66.856
		c-5.371-79.875-34.674-158.181-84.042-221.298c-10.14-13.384-21.87-25.415-32.805-38.111
		c-25.372-24.534-53.192-46.64-83.591-64.643c-18.11-10.376-37.166-18.97-55.985-27.971
		C520.036,24.172,507.554,25.225,495.91,23.098z"/>
	<path fill="#999999" stroke="#999999" d="M1830.124,153.136c7.046,14.737,11.042,30.614,15.554,46.253
		c12.095,44.041,20.667,89.134,23.954,134.7c2.965,48.745,1.117,98.522-13.534,145.441c-6.338,19.27-13.406,38.971-27.133,54.352
		c-18.196,22.428-35.92,45.244-53.837,67.887c-11.773,15.017-23.825,29.84-35.512,44.921c-4.877,6.015-7.218,13.857-12.804,19.292
		c-6.617,5.22-15.296,1.59-22.214-0.945c-11.794-4.92-24.126-8.486-35.727-13.792c-7.09-2.965-10.914-11.708-7.841-18.841
		c5.027-12.525,9.861-25.135,14.136-37.961c38.756-109.951,77.468-219.923,116.245-329.874
		C1804.151,227.36,1818.287,190.624,1830.124,153.136z"/>
	<path stroke="#000000" d="M1068.459,190.301c23.331-18.927,63.676-6.037,72.248,22.622c3.029,8.916,2.234,18.562-0.279,27.477
		c-1.182,3.244-2.47,6.466-3.652,9.71c-6.466-6.316-13.642-11.988-21.72-16.069c-19.614-10.097-41.591-16.821-63.848-15.382
		C1054.774,208.133,1059.2,197.112,1068.459,190.301z"/>
	<path fill="#FFBC00" stroke="#FFBC00" d="M1051.208,218.659c22.257-1.439,44.234,5.285,63.848,15.382
		c8.078,4.082,15.253,9.753,21.72,16.069c-15.253,42.279-30.871,84.472-45.308,127.052c-8.099,20.087-14.716,40.711-22.321,60.991
		c-6.552,18.626-13.728,37.037-19.464,55.942c-3.738,1.117-7.455,2.213-11.171,3.287c-1.805-3.437-3.609-6.853-5.263-10.355
		c-1.762-7.777-3.072-15.618-4.189-23.503c6.918-0.215,14.329,1.01,20.882-1.848c4.017-2.213,3.308-7.455,0.795-10.548
		c-6.316-8.378-16.327-12.761-25.93-16.198c-0.881-5.5-1.783-11.021-2.621-16.521c12.159,2.965,25.372,8.443,37.768,3.674
		c4.834-2.062,4.211-8.357,1.031-11.579c-10.785-12.675-27.735-17.036-43.224-20.882c-0.645-4.34-1.268-8.701-1.912-13.04
		c-9.496,5.199-17.981,11.966-26.897,18.046c12.589-39.357,27.778-77.834,41.183-116.933
		C1037.265,258.059,1044.419,238.424,1051.208,218.659 M1044.29,265.729c-0.623,11.3,10.527,17.487,19.163,21.999
		c14.007,6.488,30.871,11.859,45.802,5.285c1.547-11.386-9.947-17.53-18.39-22.128
		C1076.666,264.247,1059.328,258.532,1044.29,265.729 M1036.879,302.68c-2.664,0.559-5.07,2.062-6.66,4.275
		c-1.182,7.218,5.736,12.224,10.849,15.983c12.589,7.906,27.348,13.277,42.343,12.976c4.382-0.172,10.269-1.096,11.687-6.037
		c0.193-7.627-7.283-12.117-12.783-15.962C1068.738,306.053,1052.712,300.403,1036.879,302.68 M1020.036,348.396
		c-4.103,0.881-6.961,4.963-5.135,9.066c3.115,6.789,9.925,10.892,16.198,14.437c12.138,6.187,25.801,10.656,39.572,9.388
		c4.082-0.43,10.118-3.072,8.615-8.164c-2.234-7.734-10.054-12.074-16.585-15.898
		C1049.661,350.802,1034.73,345.496,1020.036,348.396z"/>
	<path fill="#FF0000" stroke="#FF0000" d="M1044.29,265.729c15.038-7.197,32.375-1.482,46.575,5.156
		c8.443,4.597,19.936,10.742,18.39,22.128c-14.931,6.574-31.795,1.203-45.802-5.285
		C1054.817,283.216,1043.667,277.029,1044.29,265.729z"/>
	<path fill="#FF0000" stroke="#FF0000" d="M1036.879,302.68c15.833-2.277,31.859,3.373,45.437,11.236
		c5.5,3.845,12.976,8.335,12.783,15.962c-1.418,4.941-7.304,5.865-11.687,6.037c-14.995,0.301-29.754-5.07-42.343-12.976
		c-5.113-3.76-12.031-8.765-10.849-15.983C1031.809,304.742,1034.215,303.239,1036.879,302.68z"/>
	<path fill="#FF0000" stroke="#FF0000" d="M1020.036,348.396c14.695-2.9,29.625,2.406,42.666,8.83
		c6.531,3.824,14.351,8.164,16.585,15.898c1.504,5.092-4.533,7.734-8.615,8.164c-13.771,1.268-27.434-3.201-39.572-9.388
		c-6.273-3.545-13.083-7.648-16.198-14.437C1013.075,353.359,1015.932,349.277,1020.036,348.396z"/>
	<path fill="#0A0A23" stroke="#0A0A23" d="M988.95,394.628c8.915-6.08,17.401-12.847,26.897-18.046
		c0.645,4.34,1.268,8.701,1.912,13.04c1.375,9.603,2.965,19.184,4.426,28.787c0.838,5.5,1.74,11.021,2.621,16.521
		c1.375,9.539,2.814,19.056,4.254,28.594c1.117,7.884,2.428,15.726,4.189,23.503c12.954,93.044,28.508,185.744,42.15,278.702
		c3.545,22.257,7.025,44.535,10.419,66.834c2.75,16.821,4.34,33.9,9.023,50.357c-13.126,16.241-26.274,32.504-37.961,49.819
		c-73.924,18.669-143.615,55.599-198.634,108.598c-5.07,4.254-10.484,10.913-17.938,8.873
		c-93.387-19.313-186.99-37.746-280.42-56.909c-16.177-2.084-31.365-8.722-47.585-10.355c-31.408-4.705-62.323-12.417-93.538-18.261
		c-43.095-8.98-86.405-16.929-129.372-26.51c5.392-3.351,10.892-6.552,16.499-9.56c33.471-17.96,66.77-36.221,100.069-54.481
		c27.778-15.167,55.77-29.926,83.269-45.587c13.685,1.482,27.284,3.738,40.926,5.457c49.282,3.33,99.918,0.258,146.537-17.251
		c8.937-3.588,18.239-6.123,27.37-9.109c5.586,3.287,11.257,6.402,17.165,9.087c42.343,19.163,84.3,39.121,126.579,58.434
		c12.589,5.521,24.491,12.954,38.133,15.683c-3.996-9.216-9.689-17.53-15.103-25.93c-24.598-39.4-49.218-78.779-73.838-118.136
		c4.06-11.751,14.931-18.518,22.643-27.606c22.364-25.221,40.947-53.772,55.599-84.128c24.749-48.423,38.885-101.895,44.041-155.947
		c1.719-12.718-0.494-25.844,3.222-38.305C945.081,426.058,966.779,409.989,988.95,394.628z"/>
	<path fill="#FF0000" stroke="#FF0000" d="M1017.759,389.623c15.489,3.845,32.44,8.207,43.224,20.882
		c3.179,3.222,3.802,9.517-1.031,11.579c-12.396,4.769-25.608-0.709-37.768-3.674
		C1020.723,408.807,1019.133,399.226,1017.759,389.623z"/>
	<path fill="#F7DCA6" stroke="#F7DCA6" d="M271.282,432.782c39.637-23.932,86.599-37.359,133.045-33.492
		c23.739,5.8,47.929,15.403,64.084,34.566c16.048,18.347,21.311,44.513,15.855,68.016c-6.316,27.971-24.04,52.161-45.072,71.088
		c-25.479,22.665-56.415,38.863-89.112,48.294c-15.382,4.576-31.344,6.402-47.005,9.689c-18.024-0.816-36.264-1.396-53.794-5.994
		c-16.757-4.554-34.158-5.994-51.409-7.132c-19.614-33.6-33.729-70.078-43.632-107.652c-1.762-12.331-4.211-24.555-6.187-36.865
		c10.376-0.387,20.688,1.289,31.043,0.967c18.862-0.43,37.252-6.423,53.751-15.339C246.641,451.688,257.812,440.538,271.282,432.782
		 M349.782,446.961c-43.117,25.672-85.911,51.903-129.458,76.867c-4.597,2.041-6.295,9.087-1.934,12.267
		c7.498,3.566,15.189-1.805,22.278-4.039c-0.881,9.367,1.074,19.893,9.259,25.629c21.462,15.812,56.694,0.172,60.067-26.102
		c1.289-8.121-3.265-15.382-7.841-21.591c18.669-7.39,37.853-13.663,55.921-22.514c7.82-4.125,16.735-10.29,17.144-20.022
		c-0.129-6.896-3.265-13.577-7.669-18.755C363.037,443.846,355.217,443.416,349.782,446.961z"/>
	<path fill="#EAB24E" stroke="#EAB24E" d="M404.327,399.29c25.286,1.848,50.98,9.345,70.873,25.586
		c16.069,12.954,27.198,32.461,28.293,53.235c2.105,24.663-7.519,48.767-21.698,68.51c-23.846,33.084-59.251,56.544-97.19,70.615
		c-25.995,9.517-53.751,15.124-81.529,13.706c15.661-3.287,31.623-5.113,47.005-9.689c32.697-9.431,63.633-25.629,89.112-48.294
		c21.032-18.927,38.756-43.117,45.072-71.088c5.457-23.503,0.193-49.669-15.855-68.016
		C452.256,414.693,428.066,405.09,404.327,399.29z"/>
	<path fill="#FF0000" stroke="#FF0000" d="M1024.805,434.931c9.603,3.437,19.614,7.82,25.93,16.198
		c2.513,3.094,3.222,8.336-0.795,10.548c-6.552,2.857-13.964,1.633-20.882,1.848C1027.619,453.986,1026.18,444.469,1024.805,434.931
		z"/>
	<path fill="#181733" stroke="#181733" d="M349.782,446.961c5.435-3.545,13.255-3.115,17.767,1.74
		c4.404,5.177,7.541,11.859,7.669,18.755c-0.408,9.732-9.324,15.898-17.144,20.022c-18.067,8.851-37.252,15.124-55.921,22.514
		c4.576,6.209,9.13,13.47,7.841,21.591c-3.373,26.274-38.605,41.914-60.067,26.102c-8.185-5.736-10.14-16.263-9.259-25.629
		c-7.089,2.234-14.78,7.605-22.278,4.039c-4.361-3.18-2.664-10.226,1.934-12.267C263.87,498.865,306.665,472.634,349.782,446.961z"
		/>
	<path fill="#181733" stroke="#181733" d="M1049.683,494.095c84.128-26.317,173.047-37.016,261.021-31.774
		c86.169,5.478,170.877,26.854,250.408,60.196c20.624,9.474,41.334,18.819,61.399,29.453c-1.869,4.189-3.802,8.336-5.715,12.503
		c21.097,6.252,41.849,15.06,58.37,29.969c-4.275,12.826-9.109,25.436-14.136,37.961c-3.072,7.132,0.752,15.876,7.841,18.841
		c11.601,5.306,23.932,8.873,35.727,13.792c6.917,2.535,15.597,6.166,22.214,0.945c5.586-5.435,7.927-13.277,12.804-19.292
		c11.687-15.081,23.739-29.905,35.512-44.921c10.226,4.533,20.345,10.097,27.52,18.927c18.862,22.643,26.038,53.407,23.245,82.41
		c-4.017,26.489-18.347,51.151-40.088,66.985c-33.02,24.34-74.912,32.762-115.15,34.438c-21.784-0.473-43.611-3.867-64.192-11.085
		c-31.193-11.3-58.563-31.322-80.583-55.942c-6.144,10.527-11.408,21.526-17.294,32.203c-6.789-3.244-13.599-6.402-20.366-9.646
		c-75.793-37.445-160.952-56.909-245.596-52.612c-26.897,1.182-53.643,5.091-79.982,10.677
		c21.44,19.163,43.976,37.059,65.782,55.792c-53.687,23.052-95.88,65.524-133.583,109.006c-4.683-16.456-6.273-33.535-9.023-50.357
		c-3.394-22.3-6.875-44.578-10.419-66.834c-13.642-92.958-29.196-185.658-42.15-278.702c1.654,3.502,3.459,6.918,5.263,10.355
		C1042.228,496.308,1045.945,495.212,1049.683,494.095z"/>
	<path fill="#181733" stroke="#181733" d="M784.107,754.493c3.674-3.502,8.228-5.843,12.89-7.712
		c24.62,39.357,49.24,78.736,73.838,118.136c5.414,8.4,11.107,16.714,15.103,25.93c-13.642-2.728-25.544-10.162-38.133-15.683
		c-42.279-19.313-84.236-39.271-126.579-58.434c-5.908-2.685-11.579-5.8-17.165-9.087c12.89-8.142,26.897-14.265,39.615-22.686
		C757.919,775.847,771.733,766.008,784.107,754.493z"/>
	<path fill="#FF0000" stroke="#FF0000" d="M1094.84,882.92c37.703-43.482,79.896-85.954,133.583-109.006
		c25.114,20.796,50.034,41.828,74.89,62.924c-37.703,14.136-69.971,39.98-95.536,70.723c-4.469,4.232-7.562,12.095-14.587,11.773
		c-45.802-1.418-91.669,3.18-136.311,13.406C1068.566,915.424,1081.714,899.161,1094.84,882.92z"/>
	<path stroke="#000000" d="M1606.463,793.442c20.581,7.218,42.408,10.613,64.192,11.085c-5.005,13.534-11.3,26.532-16.864,39.83
		c-3.179,7.648-7.347,15.425-14.716,19.743c-8.572,5.693-19.55,6.037-29.153,3.008c-10.119-4.984-18.239-14.523-19.442-25.995
		c-1.633-12.954,6.252-24.19,10.613-35.77C1602.832,801.348,1604.658,797.395,1606.463,793.442z"/>
	<path fill="#181733" stroke="#181733" d="M1207.777,907.561c25.565-30.742,57.833-56.587,95.536-70.723
		c5.285,4.468,10.677,8.851,15.983,13.32c27.563,24.62,58.22,45.953,83.076,73.472c24.964,30.528,40.066,68.188,44.707,107.223
		c0.215,19.056,0.279,38.219-3.308,57.038c-4.576,20.065-11.193,39.851-21.634,57.661c-3.781,6.552-8.4,13.126-8.55,21.01
		c-1.224,20.474-1.117,41.076,0.516,61.528c3.051,34.523,9.624,70.164,28.787,99.682c3.437,5.908,7.583,11.386,12.181,16.435
		c16.413,17.724,38.863,28.573,61.936,34.76c37.939,10.248,77.748,9.99,116.675,7.283c14.974-0.902,29.733-3.996,44.75-4.404
		c1.439,9.818,2.664,19.657,4.146,29.475c0.795,4.447,1.826,8.873,2.814,13.298c2.041,24.126,6.939,47.908,10.14,71.904
		c5.693,37.338,11.128,74.697,16.972,111.992c0.215,1.439,0.644,4.318,0.859,5.757c0.021,1.783,0.043,5.328,0.064,7.111
		c-72.463,1.031-144.947,0-217.41,0.494c-10.441,0.193-20.882-0.537-31.172-2.256c-1.117-0.258-3.351-0.773-4.447-1.01
		c-62.172-16.091-121.659-45.48-168.428-89.972c-33.621-31.215-60.174-69.434-80.132-110.617
		c10.935-4.597,21.891-9.152,32.762-13.943c-28.637-69.498-58.176-138.631-86.814-208.108c-14.372,0.021-28.487,3.072-42.3,6.724
		c1.01,7.283,2.363,14.544,4.103,21.741c-3.223-1.096-6.402-2.17-9.56-3.265c-0.73-5.328-1.59-10.613-2.557-15.876
		c-14.995,5.177-29.303,12.31-42.107,21.677c-30.42,21.612-52.397,53.021-68.875,86.062
		c-25.887,52.634-40.174,110.252-49.025,167.977c-1.418,8.722-2.707,17.466-3.974,26.231c-5.843-0.58-11.644-1.224-17.444-1.955
		c-74.547-9.625-149.072-19.378-223.683-28.53c-10.613-1.482-21.225-2.922-31.86-4.168c1.697-24.964,7.541-49.368,10.806-74.117
		c8.314-37.016,16.521-74.139,28.594-110.144c2.062-6.208,4.06-12.417,5.693-18.712c15.275-40.174,32.182-79.896,54.224-116.869
		c9.367-16.241,20.28-31.473,30.699-47.027c-19.421-7.648-39.013-14.845-58.606-21.999
		c-15.275,53.149-36.242,104.709-63.483,152.896c-22.257,38.949-48.058,75.857-77.168,110.015
		c-30.442,35.211-64.213,67.479-100.713,96.331c-35.104,27.692-73.107,51.345-111.884,73.494
		c-13.406,5.672-25.887,13.32-39.379,18.862c-7.261-14.222-13.491-28.895-20.473-43.224c-12.074,7.283-24.641,13.792-38.133,18.046
		c8.658,10.527,22.6,18.798,23.481,33.793c1.031,12.267-10.505,21.182-21.591,22.944c-15.983,2.557-33.557,1.354-47.607-7.304
		c-16.757-10.613-27.563-27.928-36.478-45.158c-26.983,21.612-61.034,32.483-95.171,35.361c-22.987,1.59-47.327,2.793-68.94-6.595
		c-9.345-3.802-15.554-12.224-18.991-21.44c1.525-6.832,2.062-14.2,6.209-20.065c4.92-7.498,12.911-12.052,20.645-16.155
		c10.011-5.263,19.958-10.699,29.797-16.284c29.776-17.315,60.303-33.943,87.007-55.899c25.221-24.319,55.813-41.914,85.804-59.573
		c2.17-1.31,4.318-2.599,6.466-3.91c-4.791-12.439-11.193-24.126-16.499-36.328c25.586-13.685,51.989-26.317,75.32-43.804
		c39.336-25.608,74.375-57.94,103.635-94.612c23.223-28.831,43.16-60.518,57.962-94.483c14.652-30.936,24.792-63.955,30.571-97.684
		c16.22,1.633,31.408,8.271,47.585,10.355c93.43,19.163,187.033,37.596,280.42,56.909c7.455,2.041,12.868-4.619,17.938-8.873
		c55.018-52.999,124.71-89.929,198.634-108.598c44.642-10.226,90.509-14.823,136.311-13.406
		C1200.215,919.656,1203.309,911.793,1207.777,907.561z"/>
	<path fill="#ED1818" stroke="#ED1818" d="M1115.486,1202.697c13.814-3.652,27.928-6.703,42.3-6.724
		c28.637,69.477,58.177,138.61,86.814,208.108c-10.87,4.791-21.827,9.345-32.762,13.943c-14.802,5.672-29.088,12.589-44.062,17.81
		c-1.289-4.619-2.621-9.195-3.802-13.814c-14.587-65.91-29.282-131.8-44.384-197.581
		C1117.849,1217.241,1116.495,1209.98,1115.486,1202.697z"/>
	<path fill="#ED1818" stroke="#ED1818" d="M1065.365,1226.973c12.804-9.367,27.112-16.499,42.107-21.677
		c0.967,5.263,1.826,10.548,2.557,15.876c5.929,47.392,12.697,94.655,18.884,142.004c2.857,20.409,5.07,40.904,8.679,61.206
		c0.365,5.178,0.709,10.355,1.031,15.554c-27.542,3.824-55.104,7.798-82.732,10.806
		C1059.286,1376.174,1062.809,1301.584,1065.365,1226.973z"/>
	<path fill="#0A0A23" stroke="#0A0A23" d="M1682.578,1411.32c8.228-8.937,17.036-20.409,30.463-20.259
		c11.042-0.881,19.936,6.896,26.08,15.189c8.701,11.3,17.423,22.579,26.661,33.449c19.85,25.243,39.336,50.851,60.196,75.277
		c12.482,17.294,26.274,33.6,39.443,50.378c6.423,8.25,14.995,16.564,14.866,27.821c0.322,10.656-6.789,19.636-14.995,25.608
		c-16.026,3.888-32.375-0.623-48.552-0.902c-8.786-0.859-17.53-1.998-26.295-2.75c0.752-16.478-1.267-33.256-8.056-48.402
		c-10.999-24.254-26.252-46.275-41.291-68.145c-17.917-25.114-35.898-50.292-55.706-73.967
		C1684.404,1420.193,1683.372,1415.767,1682.578,1411.32z"/>
	<path fill="#FFF8F8" stroke="#FFF8F8" d="M1695.532,1496.523c-3.201-23.997-8.099-47.779-10.14-71.904
		c19.807,23.675,37.789,48.853,55.706,73.967c15.038,21.87,30.291,43.89,41.291,68.145c6.789,15.146,8.808,31.924,8.056,48.402
		c-25.995-2.148-51.925-5.027-77.941-6.617C1706.66,1571.22,1701.225,1533.86,1695.532,1496.523z"/>
	<path fill="#FFF8F8" stroke="#FFF8F8" d="M702.364,1476.758c74.611,9.152,149.136,18.905,223.683,28.53
		c1.074,15.532,3.394,30.957,5.07,46.447c-59.723-1.203-119.64-1.912-178.912-9.925c-17.229-2.664-34.738-5.715-50.443-13.642
		c-10.677-5.049-20.13-12.245-29.024-19.936c9.001-9.367,18.261-18.54,26.811-28.315
		C700.258,1479.121,701.655,1477.553,702.364,1476.758z"/>
	<path fill="#0A0A23" stroke="#0A0A23" d="M624.036,1559.017c16.005-17.122,32.461-33.857,48.702-50.786
		c8.894,7.691,18.347,14.888,29.024,19.936c15.704,7.927,33.213,10.978,50.443,13.642c59.272,8.013,119.189,8.722,178.912,9.925
		c1.096,13.384,5.285,27.305,1.096,40.517c-3.394,10.183-13.234,15.575-22.085,20.344c-15.876-1.762-31.924-0.365-47.865-0.773
		c-66.598-0.301-133.196-0.73-199.794-0.945c-10.312-0.258-21.526,1.354-30.85-4.06c-7.476-4.082-12.009-11.73-14.995-19.442
		C615.335,1577.407,616.646,1566.472,624.036,1559.017z"/>
</g>
</svg>
